<svg xmlns="http://www.w3.org/2000/svg" version="1.1" xmlns:xlink="http://www.w3.org/1999/xlink" xmlns:svgjs="http://svgjs.dev/svgjs" width="1000" height="750" viewBox="0 0 1000 750"><rect width="1000" height="750" fill="#ffffff"></rect><g transform="matrix(0.834,0,0,0.834,82.49454545454546,115.4193570850203)"><svg viewBox="0 0 396 247" data-background-color="#ffffff" preserveAspectRatio="xMidYMid meet" height="623" width="1000" xmlns="http://www.w3.org/2000/svg" xmlns:xlink="http://www.w3.org/1999/xlink"><g id="tight-bounds" transform="matrix(1,0,0,1,0.2400000000000091,-0.09999999999999432)"><svg viewBox="0 0 395.52 247.2" height="247.2" width="395.52"><g><svg></svg></g><g><svg viewBox="0 0 395.52 247.2" height="247.2" width="395.52"><g transform="matrix(1,0,0,1,87.5192831737346,47.215199999999996)"><svg viewBox="0 0 220.48143365253077 152.7696" height="152.7696" width="220.48143365253077"><g><svg viewBox="0 0 220.48143365253077 152.7696" height="152.7696" width="220.48143365253077"><g><svg viewBox="0 0 220.48143365253077 152.7696" height="152.7696" width="220.48143365253077"><g><svg viewBox="0 0 220.48143365253077 152.7696" height="152.7696" width="220.48143365253077"><g id="textblocktransform"><svg viewBox="0 0 220.48143365253077 152.7696" height="152.7696" width="220.48143365253077" id="textblock"><g><svg viewBox="0 0 220.48143365253077 152.7696" height="152.7696" width="220.48143365253077"><g transform="matrix(1,0,0,1,0,0)"><svg width="220.48143365253077" viewBox="-10.300000190734863 -34.599998474121094 52.75 36.54999923706055" height="152.7696" data-palette-color="#ff0033"><path d="M23.5-34.4L23.5-34.4Q39.5-34.4 40.2-34.5 40.9-34.6 41.38-34.6 41.85-34.6 41.85-34.4 41.85-34.2 41.33-33.77 40.8-33.35 39.53-32.93 38.25-32.5 36.65-32.5L36.65-32.5 21.9-32.55Q15.45-32.45 9.58-30.8 3.7-29.15-0.05-26.85-3.8-24.55-6-22.15-8.2-19.75-8.2-18.05L-8.2-18.05Q-8.2-16-5.15-16-2.1-16 2.78-18.63 7.65-21.25 11.05-24.9L11.05-24.9Q11.6-25.45 11.8-25.45L11.8-25.45Q11.9-25.45 11.9-25.3 11.9-25.15 11.85-25.05L11.85-25.05Q10.4-21.65 5-17.88-0.4-14.1-5.35-14.1-10.3-14.1-10.3-16.95L-10.3-16.95Q-10.3-19.1-7.5-22.05-4.7-25-0.25-27.78 4.2-30.55 10.63-32.48 17.05-34.4 23.5-34.4ZM21-30.95L21.25-30.75Q21.25-30.6 17.75-24.1L17.75-24.1Q8.2-6.35 4.65 0.4L4.65 0.4Q4.35 1.05 3.55 1.4 2.75 1.75 2.33 1.75 1.9 1.75 1.9 1.53 1.9 1.3 6.15-6.5 10.4-14.3 14.63-22.03 18.85-29.75 18.75-29.8L18.75-29.8Q19.05-30.3 19.75-30.55L19.75-30.55 21-30.95ZM16.3-5.45L16.3-5.45Q13.9-3.25 13.25-3.25L13.25-3.25Q13.05-3.25 13.05-3.45 13.05-3.65 13.2-3.8L13.2-3.8Q14.4-4.45 16-5.9L16-5.9Q15.75-6.5 15.75-7.2L15.75-7.2Q15.75-8.9 17.5-10.45 19.25-12 20.45-12L20.45-12Q21.1-12 21.1-11.38 21.1-10.75 19.1-8.35L19.1-8.35Q18.9-8.1 18.65-7.85 18.4-7.6 18.12-7.28 17.85-6.95 17.7-6.8L17.7-6.8Q17.95-6.55 18.6-5.93 19.25-5.3 19.65-4.9L19.65-4.9Q20.75-3.8 20.75-2.15 20.75-0.5 18.7 0.73 16.65 1.95 14.42 1.95 12.2 1.95 12.2 0.63 12.2-0.7 14.25-1.8 16.3-2.9 18.55-3.3L18.55-3.3Q18.25-3.7 17.42-4.35 16.6-5 16.3-5.45ZM18.9-2.7Q17.2-2.5 15.7-1.78 14.2-1.05 14.2-0.08 14.2 0.9 15.57 0.9 16.95 0.9 18.02 0.25 19.1-0.4 19.1-1.2 19.1-2 18.9-2.7L18.9-2.7ZM17.35-7.2L17.35-7.2 18.65-8.6Q19.95-10.15 19.95-10.48 19.95-10.8 19.65-10.8L19.65-10.8Q18.8-10.8 17.9-9.98 17-9.15 17-8.38 17-7.6 17.35-7.2ZM23.1-3.8L23.1-3.8Q24.05-4.35 25.6-5.55L25.6-5.55Q29.4-8.55 29.65-8.55L29.65-8.55Q30.4-8.55 30.4-7.9 30.4-7.25 29.62-5.9 28.85-4.55 27.87-3.1 26.9-1.65 26.75-1.35L26.75-1.35Q26.8-1.3 26.97-1.3 27.15-1.3 28.95-2.63 30.75-3.95 32.7-5.43 34.65-6.9 35-7.13 35.34-7.35 35.65-7.35L35.65-7.35Q36.25-7.3 36.25-6.65L36.25-6.65Q36.25-6.4 34.55-4.13 32.84-1.85 32.84-1.2L32.84-1.2Q32.84-0.75 33.92-0.75 35-0.75 37.09-1.73 39.2-2.7 40.8-3.7L40.8-3.7 42.4-4.7Q42.45-4.6 42.45-4.3 42.45-4 42-3.8L42-3.8Q35.25 0.8 32.59 0.8L32.59 0.8Q31.05 0.8 31.05-0.4L31.05-0.4Q31.05-1.55 31.72-2.6 32.4-3.65 32.9-4.38 33.4-5.1 33.4-5.15L33.4-5.15Q31.1-3.5 27.95-1.2 24.8 1.1 24.4 1.1L24.4 1.1Q24.1 1.1 24.1 0.4 24.1-0.3 26.07-3.25 28.05-6.2 28.05-6.4 28.05-6.6 27.95-6.6L27.95-6.6 27.45-6.35 24.95-4.35Q24.7-4.15 24-3.7 23.3-3.25 23.12-3.25 22.95-3.25 22.95-3.48 22.95-3.7 23.1-3.8Z" opacity="1" transform="matrix(1,0,0,1,0,0)" fill="#ff0033" class="wordmark-text-0" data-fill-palette-color="primary" id="text-0"></path></svg></g></svg></g></svg></g></svg></g></svg></g></svg></g></svg></g><path d="M269.821 41.215L269.821 0 22.621 0 22.621 247.2 269.821 247.2 269.821 205.985 256.044 205.985 256.044 233.423 36.398 233.423 36.398 13.777 256.044 13.777 256.044 41.215Z" fill="#ff0033" stroke="transparent" data-fill-palette-color="primary"></path></svg></g><defs></defs></svg><rect width="395.52" height="247.2" fill="none" stroke="none" visibility="hidden"></rect></g></svg></g></svg>